<svg width="335" height="465" viewBox="0 0 335 465" fill="none" xmlns="http://www.w3.org/2000/svg">
<g filter="url(#filter0_b_171_1260)">
<rect width="335" height="465" rx="15" fill="#121820" fill-opacity="0.4"/>
<rect x="0.5" y="0.5" width="334" height="464" rx="14.5" stroke="#F4F9FF" stroke-opacity="0.4"/>
<path d="M22.4 23.6H38.656V46H35.68V26.416H25.376V46H22.4V23.6ZM58.5345 39.28H45.1265C45.4038 40.688 46.0545 41.7973 47.0785 42.608C48.1025 43.3973 49.3825 43.792 50.9185 43.792C53.0305 43.792 54.5665 43.0133 55.5265 41.456L57.8945 42.8C56.3158 45.2107 53.9692 46.416 50.8545 46.416C48.3372 46.416 46.2678 45.6267 44.6465 44.048C43.0678 42.4267 42.2785 40.4107 42.2785 38C42.2785 35.568 43.0572 33.5627 44.6145 31.984C46.1718 30.384 48.1878 29.584 50.6625 29.584C53.0092 29.584 54.9185 30.416 56.3905 32.08C57.8838 33.7013 58.6305 35.6853 58.6305 38.032C58.6305 38.4373 58.5985 38.8533 58.5345 39.28ZM50.6625 32.208C49.1905 32.208 47.9532 32.624 46.9505 33.456C45.9692 34.288 45.3612 35.4187 45.1265 36.848H55.8145C55.5798 35.376 54.9932 34.2347 54.0545 33.424C53.1158 32.6133 51.9852 32.208 50.6625 32.208ZM70.6628 29.584C72.9028 29.584 74.8121 30.4053 76.3908 32.048C77.9694 33.6907 78.7588 35.6747 78.7588 38C78.7588 40.3467 77.9694 42.3413 76.3908 43.984C74.8334 45.6053 72.9241 46.416 70.6628 46.416C68.0174 46.416 66.0014 45.36 64.6148 43.248V52.4H61.8307V30H64.6148V32.752C66.0014 30.64 68.0174 29.584 70.6628 29.584ZM70.3108 43.728C71.9108 43.728 73.2548 43.184 74.3428 42.096C75.4308 40.9653 75.9748 39.6 75.9748 38C75.9748 36.3787 75.4308 35.024 74.3428 33.936C73.2548 32.8267 71.9108 32.272 70.3108 32.272C68.6894 32.272 67.3348 32.8267 66.2468 33.936C65.1588 35.024 64.6148 36.3787 64.6148 38C64.6148 39.6 65.1588 40.9653 66.2468 42.096C67.3348 43.184 68.6894 43.728 70.3108 43.728ZM92.7368 37.776C94.3794 38.4587 95.2008 39.696 95.2008 41.488C95.2008 42.8533 94.7528 43.952 93.8568 44.784C92.9608 45.5947 91.7021 46 90.0808 46H82.0807V30H89.4408C91.0194 30 92.2461 30.3947 93.1208 31.184C94.0168 31.9733 94.4648 33.0293 94.4648 34.352C94.4648 35.888 93.8888 37.0293 92.7368 37.776ZM89.3128 32.496H84.8008V36.688H89.3128C90.9341 36.688 91.7448 35.9733 91.7448 34.544C91.7448 33.1787 90.9341 32.496 89.3128 32.496ZM84.8008 43.472H89.9208C90.7314 43.472 91.3501 43.28 91.7768 42.896C92.2248 42.512 92.4488 41.968 92.4488 41.264C92.4488 40.6027 92.2248 40.0907 91.7768 39.728C91.3501 39.344 90.7314 39.152 89.9208 39.152H84.8008V43.472ZM100.99 35.76H104.958C106.558 35.76 107.88 36.24 108.926 37.2C109.992 38.1387 110.526 39.3653 110.526 40.88C110.526 42.3947 109.992 43.632 108.926 44.592C107.859 45.5307 106.536 46 104.958 46H98.2057V30H100.99V35.76ZM112.606 46V30H115.39V46H112.606ZM100.99 43.408H104.958C105.768 43.408 106.44 43.1733 106.974 42.704C107.507 42.2347 107.774 41.6267 107.774 40.88C107.774 40.1333 107.496 39.5253 106.942 39.056C106.408 38.5653 105.747 38.32 104.958 38.32H100.99V43.408ZM130.907 27.6H122.267V25.168H130.907V27.6ZM122.395 41.232L131.259 30H133.499V46H130.747V34.768L121.883 46H119.643V30H122.395V41.232ZM152.297 42.544L156.905 30H159.881L153.353 46.992C152.67 48.8053 151.71 50.1813 150.473 51.12C149.236 52.08 147.828 52.5067 146.249 52.4V49.808C148.19 49.9573 149.63 48.8907 150.569 46.608L150.825 46.032L143.881 30H146.825L152.297 42.544ZM171.038 29.584C173.278 29.584 175.187 30.4053 176.766 32.048C178.344 33.6907 179.134 35.6747 179.134 38C179.134 40.3467 178.344 42.3413 176.766 43.984C175.208 45.6053 173.299 46.416 171.038 46.416C168.392 46.416 166.376 45.36 164.99 43.248V52.4H162.206V30H164.99V32.752C166.376 30.64 168.392 29.584 171.038 29.584ZM170.686 43.728C172.286 43.728 173.63 43.184 174.718 42.096C175.806 40.9653 176.35 39.6 176.35 38C176.35 36.3787 175.806 35.024 174.718 33.936C173.63 32.8267 172.286 32.272 170.686 32.272C169.064 32.272 167.71 32.8267 166.622 33.936C165.534 35.024 164.99 36.3787 164.99 38C164.99 39.6 165.534 40.9653 166.622 42.096C167.71 43.184 169.064 43.728 170.686 43.728ZM195.96 43.984C194.338 45.6053 192.344 46.416 189.976 46.416C187.608 46.416 185.613 45.6053 183.992 43.984C182.37 42.3627 181.56 40.368 181.56 38C181.56 35.632 182.37 33.6373 183.992 32.016C185.613 30.3947 187.608 29.584 189.976 29.584C192.344 29.584 194.338 30.3947 195.96 32.016C197.602 33.6587 198.424 35.6533 198.424 38C198.424 40.3467 197.602 42.3413 195.96 43.984ZM189.976 43.696C191.576 43.696 192.92 43.152 194.008 42.064C195.096 40.976 195.64 39.6213 195.64 38C195.64 36.3787 195.096 35.024 194.008 33.936C192.92 32.848 191.576 32.304 189.976 32.304C188.397 32.304 187.064 32.848 185.976 33.936C184.888 35.024 184.344 36.3787 184.344 38C184.344 39.6213 184.888 40.976 185.976 42.064C187.064 43.152 188.397 43.696 189.976 43.696ZM207.338 37.744L215.242 46H211.786L204.49 38.416V46H201.706V30H204.49V37.072L211.402 30H214.986L207.338 37.744ZM29.376 80.416C27.008 80.416 25.056 79.6373 23.52 78.08C21.984 76.5013 21.216 74.496 21.216 72.064C21.216 69.312 21.6107 67.2107 22.4 65.76C23.2107 64.288 24.8533 62.9547 27.328 61.76C27.456 61.696 27.6053 61.6213 27.776 61.536C27.968 61.4507 28.192 61.3547 28.448 61.248C28.7253 61.12 28.96 61.0133 29.152 60.928L30.88 60.16C32.5867 59.3067 33.4933 58.2827 33.6 57.088L35.84 58.368C35.6907 59.1147 35.4453 59.712 35.104 60.16C35.0827 60.2027 35.0187 60.2987 34.912 60.448C34.8053 60.576 34.7307 60.672 34.688 60.736C34.6453 60.7787 34.5707 60.8533 34.464 60.96C34.3787 61.0453 34.2827 61.1307 34.176 61.216C34.0907 61.3013 33.9733 61.3867 33.824 61.472C33.0347 61.9627 32.4693 62.2827 32.128 62.432C32 62.496 31.8613 62.56 31.712 62.624C31.584 62.688 31.4773 62.7413 31.392 62.784C31.3067 62.8267 31.2427 62.8587 31.2 62.88L30.144 63.328L29.12 63.744C27.6907 64.3627 26.6347 64.992 25.952 65.632C25.2693 66.272 24.7787 67.0827 24.48 68.064C25.1413 67.2533 25.9733 66.6347 26.976 66.208C28 65.7813 29.0453 65.568 30.112 65.568C32.1387 65.568 33.8347 66.2507 35.2 67.616C36.608 69.0027 37.312 70.7627 37.312 72.896C37.312 75.072 36.5653 76.8747 35.072 78.304C33.5573 79.712 31.6587 80.416 29.376 80.416ZM34.528 72.896C34.528 71.4667 34.0587 70.304 33.12 69.408C32.2027 68.4907 30.9867 68.032 29.472 68.032C28.128 68.032 26.8907 68.4693 25.76 69.344C24.672 70.2187 24.128 71.3493 24.128 72.736C24.128 74.1867 24.6293 75.3813 25.632 76.32C26.6347 77.2587 27.8827 77.728 29.376 77.728C30.8907 77.728 32.1173 77.2693 33.056 76.352C34.0373 75.4347 34.528 74.2827 34.528 72.896ZM55.6283 73.28H42.2203C42.4976 74.688 43.1483 75.7973 44.1723 76.608C45.1963 77.3973 46.4763 77.792 48.0123 77.792C50.1243 77.792 51.6603 77.0133 52.6203 75.456L54.9883 76.8C53.4096 79.2107 51.0629 80.416 47.9483 80.416C45.4309 80.416 43.3616 79.6267 41.7403 78.048C40.1616 76.4267 39.3723 74.4107 39.3723 72C39.3723 69.568 40.1509 67.5627 41.7083 65.984C43.2656 64.384 45.2816 63.584 47.7563 63.584C50.1029 63.584 52.0123 64.416 53.4843 66.08C54.9776 67.7013 55.7243 69.6853 55.7243 72.032C55.7243 72.4373 55.6923 72.8533 55.6283 73.28ZM47.7563 66.208C46.2843 66.208 45.0469 66.624 44.0443 67.456C43.0629 68.288 42.4549 69.4187 42.2203 70.848H52.9083C52.6736 69.376 52.0869 68.2347 51.1483 67.424C50.2096 66.6133 49.0789 66.208 47.7563 66.208ZM66.4133 80.416C64.0026 80.416 61.9973 79.616 60.3973 78.016C58.7973 76.3947 57.9973 74.3893 57.9973 72C57.9973 69.6107 58.7973 67.616 60.3973 66.016C61.9973 64.3947 64.0026 63.584 66.4133 63.584C67.9919 63.584 69.4106 63.968 70.6693 64.736C71.9279 65.4827 72.8666 66.496 73.4853 67.776L71.1493 69.12C70.7439 68.2667 70.1146 67.584 69.2613 67.072C68.4293 66.56 67.4799 66.304 66.4133 66.304C64.8133 66.304 63.4693 66.848 62.3813 67.936C61.3146 69.0453 60.7812 70.4 60.7812 72C60.7812 73.5787 61.3146 74.9227 62.3813 76.032C63.4693 77.12 64.8133 77.664 66.4133 77.664C67.4799 77.664 68.4399 77.4187 69.2933 76.928C70.1466 76.416 70.7973 75.7333 71.2453 74.88L73.6133 76.256C72.9093 77.536 71.9173 78.5493 70.6373 79.296C69.3573 80.0427 67.9493 80.416 66.4133 80.416ZM76.3932 64H90.2493V80H87.4653V66.656H79.1773V80H76.3932V64ZM95.959 64H107.831V80H105.047V66.688H98.743V73.216C98.743 75.776 98.231 77.6 97.207 78.688C96.183 79.7547 94.679 80.192 92.695 80V77.376C93.8043 77.5253 94.6257 77.28 95.159 76.64C95.6923 75.9787 95.959 74.816 95.959 73.152V64ZM125.298 66.752V64H128.082V80H125.298V77.248C123.932 79.36 121.916 80.416 119.25 80.416C116.988 80.416 115.079 79.6053 113.522 77.984C111.943 76.3413 111.154 74.3467 111.154 72C111.154 69.6747 111.943 67.6907 113.522 66.048C115.1 64.4053 117.01 63.584 119.25 63.584C121.916 63.584 123.932 64.64 125.298 66.752ZM119.602 77.728C121.223 77.728 122.578 77.184 123.666 76.096C124.754 74.9653 125.298 73.6 125.298 72C125.298 70.3787 124.754 69.024 123.666 67.936C122.578 66.8267 121.223 66.272 119.602 66.272C118.002 66.272 116.658 66.8267 115.57 67.936C114.482 69.024 113.938 70.3787 113.938 72C113.938 73.6 114.482 74.9653 115.57 76.096C116.658 77.184 118.002 77.728 119.602 77.728ZM130.508 64H144.204V66.688H138.764V80H135.98V66.688H130.508V64ZM157.715 70.656V64H160.499V80H157.715V73.312H149.427V80H146.643V64H149.427V70.656H157.715ZM178.241 77.984C176.62 79.6053 174.625 80.416 172.257 80.416C169.889 80.416 167.894 79.6053 166.273 77.984C164.652 76.3627 163.841 74.368 163.841 72C163.841 69.632 164.652 67.6373 166.273 66.016C167.894 64.3947 169.889 63.584 172.257 63.584C174.625 63.584 176.62 64.3947 178.241 66.016C179.884 67.6587 180.705 69.6533 180.705 72C180.705 74.3467 179.884 76.3413 178.241 77.984ZM172.257 77.696C173.857 77.696 175.201 77.152 176.289 76.064C177.377 74.976 177.921 73.6213 177.921 72C177.921 70.3787 177.377 69.024 176.289 67.936C175.201 66.848 173.857 66.304 172.257 66.304C170.678 66.304 169.345 66.848 168.257 67.936C167.169 69.024 166.625 70.3787 166.625 72C166.625 73.6213 167.169 74.976 168.257 76.064C169.345 77.152 170.678 77.696 172.257 77.696Z" fill="#F4F9FF"/>
<path d="M23.724 122.2H27.644V132H26.356V128.248H24.41L21.876 132H20.406L23.01 128.164C22.338 128.015 21.7827 127.66 21.344 127.1C20.9053 126.549 20.686 125.929 20.686 125.238C20.686 124.398 20.98 123.684 21.568 123.096C22.1653 122.499 22.884 122.2 23.724 122.2ZM23.724 127.072H26.356V123.418H23.724C23.2573 123.418 22.8467 123.595 22.492 123.95C22.1467 124.295 21.974 124.725 21.974 125.238C21.974 125.751 22.1467 126.185 22.492 126.54C22.8467 126.895 23.2573 127.072 23.724 127.072ZM33.3993 128.416C34.174 128.743 34.5613 129.298 34.5613 130.082C34.5613 130.689 34.3233 131.193 33.8473 131.594C33.3713 131.986 32.7133 132.182 31.8733 132.182C30.4733 132.182 29.5353 131.622 29.0593 130.502L30.0813 129.9C30.3426 130.665 30.9446 131.048 31.8873 131.048C32.3446 131.048 32.704 130.95 32.9653 130.754C33.2266 130.558 33.3573 130.297 33.3573 129.97C33.3573 129.69 33.25 129.461 33.0353 129.284C32.83 129.107 32.55 129.018 32.1953 129.018H31.1733V127.912H31.9293C32.284 127.912 32.5593 127.828 32.7553 127.66C32.9513 127.483 33.0493 127.245 33.0493 126.946C33.0493 126.638 32.9326 126.395 32.6993 126.218C32.466 126.031 32.1533 125.938 31.7613 125.938C30.9773 125.938 30.4453 126.269 30.1653 126.932L29.1713 126.358C29.666 125.331 30.5293 124.818 31.7613 124.818C32.508 124.818 33.1053 125.014 33.5533 125.406C34.0106 125.789 34.2393 126.269 34.2393 126.848C34.2393 127.557 33.9593 128.08 33.3993 128.416ZM37.099 127.52H38.835C39.535 127.52 40.1137 127.73 40.571 128.15C41.0377 128.561 41.271 129.097 41.271 129.76C41.271 130.423 41.0377 130.964 40.571 131.384C40.1044 131.795 39.5257 132 38.835 132H35.881V125H37.099V127.52ZM42.181 132V125H43.399V132H42.181ZM37.099 130.866H38.835C39.1897 130.866 39.4837 130.763 39.717 130.558C39.9504 130.353 40.067 130.087 40.067 129.76C40.067 129.433 39.9457 129.167 39.703 128.962C39.4697 128.747 39.1804 128.64 38.835 128.64H37.099V130.866ZM47.7239 128.388L51.1819 132H49.6699L46.4779 128.682V132H45.2599V125H46.4779V128.094L49.5019 125H51.0699L47.7239 128.388Z" fill="#F4F9FF"/>
<rect x="20" y="148" width="295" height="40" rx="10" fill="black" fill-opacity="0.15"/>
<rect x="20.5" y="148.5" width="294" height="39" rx="9.5" stroke="white" stroke-opacity="0.4"/>
<path d="M38.71 166.96L43.176 172H41.58L37.352 167.296V172H36.05V162.2H37.352V166.624L41.44 162.2H43.036L38.71 166.96ZM49.4883 171.118C48.7789 171.827 47.9063 172.182 46.8703 172.182C45.8343 172.182 44.9616 171.827 44.2523 171.118C43.5429 170.409 43.1883 169.536 43.1883 168.5C43.1883 167.464 43.5429 166.591 44.2523 165.882C44.9616 165.173 45.8343 164.818 46.8703 164.818C47.9063 164.818 48.7789 165.173 49.4883 165.882C50.2069 166.601 50.5662 167.473 50.5662 168.5C50.5662 169.527 50.2069 170.399 49.4883 171.118ZM46.8703 170.992C47.5703 170.992 48.1583 170.754 48.6343 170.278C49.1103 169.802 49.3483 169.209 49.3483 168.5C49.3483 167.791 49.1103 167.198 48.6343 166.722C48.1583 166.246 47.5703 166.008 46.8703 166.008C46.1796 166.008 45.5963 166.246 45.1203 166.722C44.6443 167.198 44.4062 167.791 44.4062 168.5C44.4062 169.209 44.6443 169.802 45.1203 170.278C45.5963 170.754 46.1796 170.992 46.8703 170.992ZM55.8661 164.818C56.8461 164.818 57.6815 165.177 58.3721 165.896C59.0628 166.615 59.4081 167.483 59.4081 168.5C59.4081 169.527 59.0628 170.399 58.3721 171.118C57.6908 171.827 56.8555 172.182 55.8661 172.182C54.7088 172.182 53.8268 171.72 53.2201 170.796V174.8H52.0021V165H53.2201V166.204C53.8268 165.28 54.7088 164.818 55.8661 164.818ZM55.7121 171.006C56.4121 171.006 57.0001 170.768 57.4761 170.292C57.9521 169.797 58.1901 169.2 58.1901 168.5C58.1901 167.791 57.9521 167.198 57.4761 166.722C57.0001 166.237 56.4121 165.994 55.7121 165.994C55.0028 165.994 54.4101 166.237 53.9341 166.722C53.4581 167.198 53.2201 167.791 53.2201 168.5C53.2201 169.2 53.4581 169.797 53.9341 170.292C54.4101 170.768 55.0028 171.006 55.7121 171.006ZM67.5815 169.06H61.7155C61.8368 169.676 62.1215 170.161 62.5695 170.516C63.0175 170.861 63.5775 171.034 64.2495 171.034C65.1735 171.034 65.8455 170.693 66.2655 170.012L67.3015 170.6C66.6108 171.655 65.5842 172.182 64.2215 172.182C63.1202 172.182 62.2148 171.837 61.5055 171.146C60.8148 170.437 60.4695 169.555 60.4695 168.5C60.4695 167.436 60.8102 166.559 61.4915 165.868C62.1728 165.168 63.0548 164.818 64.1375 164.818C65.1642 164.818 65.9995 165.182 66.6435 165.91C67.2968 166.619 67.6235 167.487 67.6235 168.514C67.6235 168.691 67.6095 168.873 67.5815 169.06ZM64.1375 165.966C63.4935 165.966 62.9522 166.148 62.5135 166.512C62.0842 166.876 61.8182 167.371 61.7155 167.996H66.3915C66.2888 167.352 66.0322 166.853 65.6215 166.498C65.2108 166.143 64.7162 165.966 64.1375 165.966ZM73.9516 163.95H70.1716V162.886H73.9516V163.95ZM70.2276 169.914L74.1056 165H75.0856V172H73.8816V167.086L70.0036 172H69.0236V165H70.2276V169.914ZM80.2296 172.182C79.175 172.182 78.2976 171.832 77.5976 171.132C76.8976 170.423 76.5476 169.545 76.5476 168.5C76.5476 167.455 76.8976 166.582 77.5976 165.882C78.2976 165.173 79.175 164.818 80.2296 164.818C80.9203 164.818 81.541 164.986 82.0916 165.322C82.6423 165.649 83.053 166.092 83.3236 166.652L82.3016 167.24C82.1243 166.867 81.849 166.568 81.4756 166.344C81.1116 166.12 80.6963 166.008 80.2296 166.008C79.5296 166.008 78.9416 166.246 78.4656 166.722C77.999 167.207 77.7656 167.8 77.7656 168.5C77.7656 169.191 77.999 169.779 78.4656 170.264C78.9416 170.74 79.5296 170.978 80.2296 170.978C80.6963 170.978 81.1163 170.871 81.4896 170.656C81.863 170.432 82.1476 170.133 82.3436 169.76L83.3796 170.362C83.0716 170.922 82.6376 171.365 82.0776 171.692C81.5176 172.019 80.9016 172.182 80.2296 172.182ZM87.0599 168.388L90.5179 172H89.0059L85.8139 168.682V172H84.5959V165H85.8139V168.094L88.8379 165H90.4059L87.0599 168.388ZM92.8546 169.914L96.7326 165H97.7126V172H96.5086V167.086L92.6306 172H91.6506V165H92.8546V169.914ZM104.495 163.95H100.715V162.886H104.495V163.95ZM100.771 169.914L104.649 165H105.629V172H104.425V167.086L100.547 172H99.5666V165H100.771V169.914Z" fill="#F4F9FF"/>
<path d="M287 165L293.5 171L300 165" stroke="#F4F9FF" stroke-width="2" stroke-linecap="round" stroke-linejoin="round"/>
<path d="M21.05 212.2H28.162V222H26.86V213.432H22.352V222H21.05V212.2ZM34.0028 214.818C34.9828 214.818 35.8182 215.177 36.5088 215.896C37.1995 216.615 37.5448 217.483 37.5448 218.5C37.5448 219.527 37.1995 220.399 36.5088 221.118C35.8275 221.827 34.9922 222.182 34.0028 222.182C32.8455 222.182 31.9635 221.72 31.3568 220.796V224.8H30.1388V215H31.3568V216.204C31.9635 215.28 32.8455 214.818 34.0028 214.818ZM33.8488 221.006C34.5488 221.006 35.1368 220.768 35.6128 220.292C36.0888 219.797 36.3268 219.2 36.3268 218.5C36.3268 217.791 36.0888 217.198 35.6128 216.722C35.1368 216.237 34.5488 215.994 33.8488 215.994C33.1395 215.994 32.5468 216.237 32.0708 216.722C31.5948 217.198 31.3568 217.791 31.3568 218.5C31.3568 219.2 31.5948 219.797 32.0708 220.292C32.5468 220.768 33.1395 221.006 33.8488 221.006ZM44.9062 221.118C44.1969 221.827 43.3242 222.182 42.2882 222.182C41.2522 222.182 40.3796 221.827 39.6702 221.118C38.9609 220.409 38.6062 219.536 38.6062 218.5C38.6062 217.464 38.9609 216.591 39.6702 215.882C40.3796 215.173 41.2522 214.818 42.2882 214.818C43.3242 214.818 44.1969 215.173 44.9062 215.882C45.6249 216.601 45.9842 217.473 45.9842 218.5C45.9842 219.527 45.6249 220.399 44.9062 221.118ZM42.2882 220.992C42.9882 220.992 43.5762 220.754 44.0522 220.278C44.5282 219.802 44.7662 219.209 44.7662 218.5C44.7662 217.791 44.5282 217.198 44.0522 216.722C43.5762 216.246 42.9882 216.008 42.2882 216.008C41.5976 216.008 41.0142 216.246 40.5382 216.722C40.0622 217.198 39.8242 217.791 39.8242 218.5C39.8242 219.209 40.0622 219.802 40.5382 220.278C41.0142 220.754 41.5976 220.992 42.2882 220.992ZM47.4201 215H52.0121V216.176H48.6381V222H47.4201V215ZM56.9443 214.818C57.9243 214.818 58.7596 215.177 59.4503 215.896C60.1409 216.615 60.4863 217.483 60.4863 218.5C60.4863 219.527 60.1409 220.399 59.4503 221.118C58.7689 221.827 57.9336 222.182 56.9443 222.182C55.7869 222.182 54.9049 221.72 54.2983 220.796V224.8H53.0802V215H54.2983V216.204C54.9049 215.28 55.7869 214.818 56.9443 214.818ZM56.7903 221.006C57.4903 221.006 58.0783 220.768 58.5543 220.292C59.0303 219.797 59.2683 219.2 59.2683 218.5C59.2683 217.791 59.0303 217.198 58.5543 216.722C58.0783 216.237 57.4903 215.994 56.7903 215.994C56.0809 215.994 55.4883 216.237 55.0123 216.722C54.5363 217.198 54.2983 217.791 54.2983 218.5C54.2983 219.2 54.5363 219.797 55.0123 220.292C55.4883 220.768 56.0809 221.006 56.7903 221.006ZM67.7356 216.204V215H68.9536V222H67.7356V220.796C67.1383 221.72 66.2563 222.182 65.0896 222.182C64.1003 222.182 63.265 221.827 62.5836 221.118C61.893 220.399 61.5476 219.527 61.5476 218.5C61.5476 217.483 61.893 216.615 62.5836 215.896C63.2743 215.177 64.1096 214.818 65.0896 214.818C66.2563 214.818 67.1383 215.28 67.7356 216.204ZM65.2436 221.006C65.953 221.006 66.5456 220.768 67.0216 220.292C67.4976 219.797 67.7356 219.2 67.7356 218.5C67.7356 217.791 67.4976 217.198 67.0216 216.722C66.5456 216.237 65.953 215.994 65.2436 215.994C64.5436 215.994 63.9556 216.237 63.4796 216.722C63.0036 217.198 62.7656 217.791 62.7656 218.5C62.7656 219.2 63.0036 219.797 63.4796 220.292C63.9556 220.768 64.5436 221.006 65.2436 221.006ZM76.497 215H77.799V222H76.609V216.918L74.383 220.502H74.229L72.003 216.918V222H70.799V215H72.101L74.299 218.542L76.497 215ZM85.3564 215H86.6584V222H85.4684V216.918L83.2424 220.502H83.0884L80.8624 216.918V222H79.6584V215H80.9604L83.1584 218.542L85.3564 215ZM94.3138 216.204V215H95.5318V222H94.3138V220.796C93.7164 221.72 92.8344 222.182 91.6678 222.182C90.6784 222.182 89.8431 221.827 89.1618 221.118C88.4711 220.399 88.1258 219.527 88.1258 218.5C88.1258 217.483 88.4711 216.615 89.1618 215.896C89.8524 215.177 90.6878 214.818 91.6678 214.818C92.8344 214.818 93.7164 215.28 94.3138 216.204ZM91.8218 221.006C92.5311 221.006 93.1238 220.768 93.5998 220.292C94.0758 219.797 94.3138 219.2 94.3138 218.5C94.3138 217.791 94.0758 217.198 93.5998 216.722C93.1238 216.237 92.5311 215.994 91.8218 215.994C91.1218 215.994 90.5338 216.237 90.0578 216.722C89.5818 217.198 89.3438 217.791 89.3438 218.5C89.3438 219.2 89.5818 219.797 90.0578 220.292C90.5338 220.768 91.1218 221.006 91.8218 221.006Z" fill="#F4F9FF"/>
<rect x="20" y="238" width="295" height="40" rx="10" fill="black" fill-opacity="0.15"/>
<rect x="20.5" y="238.5" width="294" height="39" rx="9.5" stroke="white" stroke-opacity="0.4"/>
<path d="M40.656 262.182C39.1627 262.182 37.9353 261.692 36.974 260.712C36.0127 259.741 35.532 258.537 35.532 257.1C35.532 255.663 36.0127 254.459 36.974 253.488C37.9353 252.508 39.1627 252.018 40.656 252.018C41.5427 252.018 42.364 252.233 43.12 252.662C43.876 253.091 44.464 253.67 44.884 254.398L43.75 255.056C43.47 254.515 43.05 254.085 42.49 253.768C41.9393 253.441 41.328 253.278 40.656 253.278C39.5173 253.278 38.5933 253.642 37.884 254.37C37.1747 255.089 36.82 255.999 36.82 257.1C36.82 258.192 37.1747 259.097 37.884 259.816C38.5933 260.544 39.5173 260.908 40.656 260.908C41.328 260.908 41.9393 260.749 42.49 260.432C43.05 260.105 43.47 259.676 43.75 259.144L44.884 259.788C44.4733 260.516 43.89 261.099 43.134 261.538C42.3873 261.967 41.5613 262.182 40.656 262.182ZM56.0456 260.796C55.3923 261.72 54.4636 262.182 53.2596 262.182C52.0556 262.182 51.1269 261.72 50.4736 260.796C49.8109 259.863 49.4796 258.631 49.4796 257.1C49.4796 255.569 49.8109 254.337 50.4736 253.404C51.1269 252.48 52.0556 252.018 53.2596 252.018C54.4636 252.018 55.3923 252.48 56.0456 253.404C56.7083 254.337 57.0396 255.569 57.0396 257.1C57.0396 258.631 56.7083 259.863 56.0456 260.796ZM50.7816 257.1C50.7816 258.313 50.9963 259.251 51.4256 259.914C51.8549 260.577 52.4663 260.908 53.2596 260.908C54.0529 260.908 54.6643 260.577 55.0936 259.914C55.5323 259.251 55.7516 258.313 55.7516 257.1C55.7516 255.887 55.5323 254.949 55.0936 254.286C54.6643 253.614 54.0529 253.278 53.2596 253.278C52.4663 253.278 51.8549 253.609 51.4256 254.272C50.9963 254.935 50.7816 255.877 50.7816 257.1ZM68.112 255V260.838H69.078V263.876H67.874V262H62.624V263.876H61.42V260.838H62.274C62.722 260.222 62.946 259.359 62.946 258.248V255H68.112ZM63.66 260.838H66.908V256.134H64.15V258.248C64.15 259.275 63.9866 260.138 63.66 260.838ZM76.0254 261.118C75.316 261.827 74.4434 262.182 73.4074 262.182C72.3714 262.182 71.4987 261.827 70.7894 261.118C70.08 260.409 69.7254 259.536 69.7254 258.5C69.7254 257.464 70.08 256.591 70.7894 255.882C71.4987 255.173 72.3714 254.818 73.4074 254.818C74.4434 254.818 75.316 255.173 76.0254 255.882C76.744 256.601 77.1034 257.473 77.1034 258.5C77.1034 259.527 76.744 260.399 76.0254 261.118ZM73.4074 260.992C74.1074 260.992 74.6954 260.754 75.1714 260.278C75.6474 259.802 75.8854 259.209 75.8854 258.5C75.8854 257.791 75.6474 257.198 75.1714 256.722C74.6954 256.246 74.1074 256.008 73.4074 256.008C72.7167 256.008 72.1334 256.246 71.6574 256.722C71.1814 257.198 70.9434 257.791 70.9434 258.5C70.9434 259.209 71.1814 259.802 71.6574 260.278C72.1334 260.754 72.7167 260.992 73.4074 260.992ZM82.0392 255H88.1012V262H86.8832V256.162H83.2572V262H82.0392V255ZM95.8633 261.118C95.1539 261.827 94.2813 262.182 93.2453 262.182C92.2093 262.182 91.3366 261.827 90.6273 261.118C89.9179 260.409 89.5633 259.536 89.5633 258.5C89.5633 257.464 89.9179 256.591 90.6273 255.882C91.3366 255.173 92.2093 254.818 93.2453 254.818C94.2813 254.818 95.1539 255.173 95.8633 255.882C96.5819 256.601 96.9412 257.473 96.9412 258.5C96.9412 259.527 96.5819 260.399 95.8633 261.118ZM93.2453 260.992C93.9453 260.992 94.5333 260.754 95.0093 260.278C95.4853 259.802 95.7233 259.209 95.7233 258.5C95.7233 257.791 95.4853 257.198 95.0093 256.722C94.5333 256.246 93.9453 256.008 93.2453 256.008C92.5546 256.008 91.9713 256.246 91.4953 256.722C91.0193 257.198 90.7812 257.791 90.7812 258.5C90.7812 259.209 91.0193 259.802 91.4953 260.278C91.9713 260.754 92.5546 260.992 93.2453 260.992ZM101.667 262.182C100.612 262.182 99.7351 261.832 99.0351 261.132C98.3351 260.423 97.9851 259.545 97.9851 258.5C97.9851 257.455 98.3351 256.582 99.0351 255.882C99.7351 255.173 100.612 254.818 101.667 254.818C102.358 254.818 102.978 254.986 103.529 255.322C104.08 255.649 104.49 256.092 104.761 256.652L103.739 257.24C103.562 256.867 103.286 256.568 102.913 256.344C102.549 256.12 102.134 256.008 101.667 256.008C100.967 256.008 100.379 256.246 99.9031 256.722C99.4365 257.207 99.2031 257.8 99.2031 258.5C99.2031 259.191 99.4365 259.779 99.9031 260.264C100.379 260.74 100.967 260.978 101.667 260.978C102.134 260.978 102.554 260.871 102.927 260.656C103.3 260.432 103.585 260.133 103.781 259.76L104.817 260.362C104.509 260.922 104.075 261.365 103.515 261.692C102.955 262.019 102.339 262.182 101.667 262.182ZM105.126 255H111.118V256.176H108.738V262H107.52V256.176H105.126V255ZM115.097 260.488L117.113 255H118.415L115.559 262.434C115.26 263.227 114.84 263.829 114.299 264.24C113.757 264.66 113.141 264.847 112.451 264.8V263.666C113.3 263.731 113.93 263.265 114.341 262.266L114.453 262.014L111.415 255H112.703L115.097 260.488ZM119.432 255H125.494V262H124.276V256.162H120.65V262H119.432V255ZM127.992 255H133.186V262H131.968V256.176H129.21V259.032C129.21 260.152 128.986 260.95 128.538 261.426C128.09 261.893 127.432 262.084 126.564 262V260.852C127.049 260.917 127.408 260.81 127.642 260.53C127.875 260.241 127.992 259.732 127.992 259.004V255ZM141.751 259.06H135.885C136.007 259.676 136.291 260.161 136.739 260.516C137.187 260.861 137.747 261.034 138.419 261.034C139.343 261.034 140.015 260.693 140.435 260.012L141.471 260.6C140.781 261.655 139.754 262.182 138.391 262.182C137.29 262.182 136.385 261.837 135.675 261.146C134.985 260.437 134.639 259.555 134.639 258.5C134.639 257.436 134.98 256.559 135.661 255.868C136.343 255.168 137.225 254.818 138.307 254.818C139.334 254.818 140.169 255.182 140.813 255.91C141.467 256.619 141.793 257.487 141.793 258.514C141.793 258.691 141.779 258.873 141.751 259.06ZM138.307 255.966C137.663 255.966 137.122 256.148 136.683 256.512C136.254 256.876 135.988 257.371 135.885 257.996H140.561C140.459 257.352 140.202 256.853 139.791 256.498C139.381 256.143 138.886 255.966 138.307 255.966ZM148.038 257.912V255H149.256V262H148.038V259.074H144.412V262H143.194V255H144.412V257.912H148.038ZM152.314 259.914L156.192 255H157.172V262H155.968V257.086L152.09 262H151.11V255H152.314V259.914ZM161.28 255H164.262V262H163.058V259.48H162.036L160.076 262H158.592L160.636 259.41C160.104 259.279 159.674 259.018 159.348 258.626C159.03 258.234 158.872 257.777 158.872 257.254C158.872 256.61 159.1 256.073 159.558 255.644C160.015 255.215 160.589 255 161.28 255ZM161.322 258.388H163.058V256.134H161.322C160.967 256.134 160.668 256.241 160.426 256.456C160.192 256.661 160.076 256.932 160.076 257.268C160.076 257.595 160.192 257.865 160.426 258.08C160.668 258.285 160.967 258.388 161.322 258.388ZM174.27 258.402C174.988 258.701 175.348 259.242 175.348 260.026C175.348 260.623 175.152 261.104 174.76 261.468C174.368 261.823 173.817 262 173.108 262H169.608V255H172.828C173.518 255 174.055 255.173 174.438 255.518C174.83 255.863 175.026 256.325 175.026 256.904C175.026 257.576 174.774 258.075 174.27 258.402ZM172.772 256.092H170.798V257.926H172.772C173.481 257.926 173.836 257.613 173.836 256.988C173.836 256.391 173.481 256.092 172.772 256.092ZM170.798 260.894H173.038C173.392 260.894 173.663 260.81 173.85 260.642C174.046 260.474 174.144 260.236 174.144 259.928C174.144 259.639 174.046 259.415 173.85 259.256C173.663 259.088 173.392 259.004 173.038 259.004H170.798V260.894ZM185.888 256.918C186.346 257.142 186.705 257.455 186.966 257.856C187.228 258.257 187.358 258.715 187.358 259.228C187.358 260.012 187.083 260.67 186.532 261.202C185.982 261.734 185.31 262 184.516 262H180.288V252.2H184.208C184.983 252.2 185.632 252.457 186.154 252.97C186.686 253.483 186.952 254.118 186.952 254.874C186.952 255.751 186.598 256.433 185.888 256.918ZM184.208 253.418H181.59V256.414H184.208C184.619 256.414 184.964 256.269 185.244 255.98C185.524 255.691 185.664 255.336 185.664 254.916C185.664 254.505 185.52 254.155 185.23 253.866C184.95 253.567 184.61 253.418 184.208 253.418ZM181.59 260.782H184.516C184.955 260.782 185.324 260.628 185.622 260.32C185.921 260.012 186.07 259.634 186.07 259.186C186.07 258.747 185.916 258.374 185.608 258.066C185.319 257.758 184.955 257.604 184.516 257.604H181.59V260.782ZM191.453 257.8L193.805 252.2H195.121L191.971 259.676C191.271 261.319 190.146 262.093 188.597 262V260.796C189.129 260.852 189.563 260.777 189.899 260.572C190.244 260.357 190.529 259.984 190.753 259.452L190.851 259.228L187.533 252.2H188.849L191.453 257.8ZM200.402 256.932C201.466 257.389 201.998 258.187 201.998 259.326C201.998 260.166 201.68 260.852 201.046 261.384C200.42 261.916 199.59 262.182 198.554 262.182C197.639 262.182 196.888 261.981 196.3 261.58C195.721 261.179 195.31 260.628 195.068 259.928L196.174 259.298C196.463 260.399 197.256 260.95 198.554 260.95C199.226 260.95 199.748 260.801 200.122 260.502C200.504 260.203 200.696 259.797 200.696 259.284C200.696 258.771 200.518 258.365 200.164 258.066C199.809 257.758 199.324 257.604 198.708 257.604H197.56V256.414H198.386C198.974 256.414 199.445 256.269 199.8 255.98C200.164 255.681 200.346 255.294 200.346 254.818C200.346 254.342 200.178 253.959 199.842 253.67C199.506 253.381 199.048 253.236 198.47 253.236C197.387 253.236 196.664 253.717 196.3 254.678L195.208 254.048C195.796 252.695 196.883 252.018 198.47 252.018C199.412 252.018 200.173 252.279 200.752 252.802C201.34 253.315 201.634 253.978 201.634 254.79C201.634 255.733 201.223 256.447 200.402 256.932Z" fill="#F4F9FF"/>
<path d="M287 255L293.5 261L300 255" stroke="#F4F9FF" stroke-width="2" stroke-linecap="round" stroke-linejoin="round"/>
<path d="M26.3 310.964V312.07H25.026V310.964C23.626 310.861 22.5013 310.479 21.652 309.816C20.812 309.144 20.392 308.239 20.392 307.1C20.392 305.961 20.812 305.056 21.652 304.384C22.5013 303.721 23.626 303.339 25.026 303.236V302.13H26.3V303.236C27.7187 303.339 28.8433 303.721 29.674 304.384C30.5233 305.056 30.948 305.961 30.948 307.1C30.948 308.239 30.5233 309.144 29.674 309.816C28.8433 310.479 27.7187 310.861 26.3 310.964ZM26.3 304.426V309.774C27.3733 309.699 28.1993 309.438 28.778 308.99C29.3567 308.533 29.646 307.903 29.646 307.1C29.646 306.297 29.3567 305.672 28.778 305.224C28.1993 304.767 27.3733 304.501 26.3 304.426ZM22.548 305.224C21.9693 305.672 21.68 306.297 21.68 307.1C21.68 307.903 21.9693 308.528 22.548 308.976C23.1267 309.424 23.9527 309.685 25.026 309.76V304.426C23.9527 304.501 23.1267 304.767 22.548 305.224ZM38.1523 311.118C37.443 311.827 36.5703 312.182 35.5343 312.182C34.4983 312.182 33.6256 311.827 32.9163 311.118C32.207 310.409 31.8523 309.536 31.8523 308.5C31.8523 307.464 32.207 306.591 32.9163 305.882C33.6256 305.173 34.4983 304.818 35.5343 304.818C36.5703 304.818 37.443 305.173 38.1523 305.882C38.871 306.601 39.2303 307.473 39.2303 308.5C39.2303 309.527 38.871 310.399 38.1523 311.118ZM35.5343 310.992C36.2343 310.992 36.8223 310.754 37.2983 310.278C37.7743 309.802 38.0123 309.209 38.0123 308.5C38.0123 307.791 37.7743 307.198 37.2983 306.722C36.8223 306.246 36.2343 306.008 35.5343 306.008C34.8436 306.008 34.2603 306.246 33.7843 306.722C33.3083 307.198 33.0703 307.791 33.0703 308.5C33.0703 309.209 33.3083 309.802 33.7843 310.278C34.2603 310.754 34.8436 310.992 35.5343 310.992ZM44.5302 304.818C45.5102 304.818 46.3455 305.177 47.0362 305.896C47.7269 306.615 48.0722 307.483 48.0722 308.5C48.0722 309.527 47.7269 310.399 47.0362 311.118C46.3549 311.827 45.5195 312.182 44.5302 312.182C43.3729 312.182 42.4909 311.72 41.8842 310.796V314.8H40.6662V305H41.8842V306.204C42.4909 305.28 43.3729 304.818 44.5302 304.818ZM44.3762 311.006C45.0762 311.006 45.6642 310.768 46.1402 310.292C46.6162 309.797 46.8542 309.2 46.8542 308.5C46.8542 307.791 46.6162 307.198 46.1402 306.722C45.6642 306.237 45.0762 305.994 44.3762 305.994C43.6669 305.994 43.0742 306.237 42.5982 306.722C42.1222 307.198 41.8842 307.791 41.8842 308.5C41.8842 309.2 42.1222 309.797 42.5982 310.292C43.0742 310.768 43.6669 311.006 44.3762 311.006ZM55.2236 305H56.5256V312H55.3356V306.918L53.1096 310.502H52.9556L50.7296 306.918V312H49.5256V305H50.8276L53.0256 308.542L55.2236 305ZM64.1809 306.204V305H65.3989V312H64.1809V310.796C63.5836 311.72 62.7016 312.182 61.5349 312.182C60.5456 312.182 59.7103 311.827 59.0289 311.118C58.3383 310.399 57.9929 309.527 57.9929 308.5C57.9929 307.483 58.3383 306.615 59.0289 305.896C59.7196 305.177 60.5549 304.818 61.5349 304.818C62.7016 304.818 63.5836 305.28 64.1809 306.204ZM61.6889 311.006C62.3983 311.006 62.9909 310.768 63.4669 310.292C63.9429 309.797 64.1809 309.2 64.1809 308.5C64.1809 307.791 63.9429 307.198 63.4669 306.722C62.9909 306.237 62.3983 305.994 61.6889 305.994C60.9889 305.994 60.4009 306.237 59.9249 306.722C59.4489 307.198 59.2109 307.791 59.2109 308.5C59.2109 309.2 59.4489 309.797 59.9249 310.292C60.4009 310.768 60.9889 311.006 61.6889 311.006ZM66.4603 305H72.4523V306.176H70.0723V312H68.8543V306.176H66.4603V305Z" fill="#F4F9FF"/>
<rect x="20" y="328" width="295" height="40" rx="10" fill="black" fill-opacity="0.15"/>
<rect x="20.5" y="328.5" width="294" height="39" rx="9.5" stroke="white" stroke-opacity="0.4"/>
<path d="M42.112 346.358V342.2H43.4V352H42.112V347.59H37.352V352H36.05V342.2H37.352V346.358H42.112ZM52.0913 349.06H46.2253C46.3466 349.676 46.6313 350.161 47.0793 350.516C47.5273 350.861 48.0873 351.034 48.7593 351.034C49.6833 351.034 50.3553 350.693 50.7753 350.012L51.8113 350.6C51.1206 351.655 50.0939 352.182 48.7313 352.182C47.6299 352.182 46.7246 351.837 46.0153 351.146C45.3246 350.437 44.9793 349.555 44.9793 348.5C44.9793 347.436 45.3199 346.559 46.0013 345.868C46.6826 345.168 47.5646 344.818 48.6473 344.818C49.6739 344.818 50.5093 345.182 51.1533 345.91C51.8066 346.619 52.1333 347.487 52.1333 348.514C52.1333 348.691 52.1193 348.873 52.0913 349.06ZM48.6473 345.966C48.0033 345.966 47.4619 346.148 47.0233 346.512C46.5939 346.876 46.3279 347.371 46.2253 347.996H50.9013C50.7986 347.352 50.5419 346.853 50.1313 346.498C49.7206 346.143 49.2259 345.966 48.6473 345.966ZM61.6954 348.402C62.414 348.701 62.7734 349.242 62.7734 350.026C62.7734 350.623 62.5774 351.104 62.1854 351.468C61.7934 351.823 61.2427 352 60.5334 352H57.0334V345H60.2534C60.944 345 61.4807 345.173 61.8634 345.518C62.2554 345.863 62.4514 346.325 62.4514 346.904C62.4514 347.576 62.1994 348.075 61.6954 348.402ZM60.1974 346.092H58.2234V347.926H60.1974C60.9067 347.926 61.2614 347.613 61.2614 346.988C61.2614 346.391 60.9067 346.092 60.1974 346.092ZM58.2234 350.894H60.4634C60.818 350.894 61.0887 350.81 61.2754 350.642C61.4714 350.474 61.5694 350.236 61.5694 349.928C61.5694 349.639 61.4714 349.415 61.2754 349.256C61.0887 349.088 60.818 349.004 60.4634 349.004H58.2234V350.894ZM65.3061 347.52H67.0421C67.7421 347.52 68.3207 347.73 68.7781 348.15C69.2447 348.561 69.4781 349.097 69.4781 349.76C69.4781 350.423 69.2447 350.964 68.7781 351.384C68.3114 351.795 67.7327 352 67.0421 352H64.0881V345H65.3061V347.52ZM70.3881 352V345H71.6061V352H70.3881ZM65.3061 350.866H67.0421C67.3967 350.866 67.6907 350.763 67.9241 350.558C68.1574 350.353 68.2741 350.087 68.2741 349.76C68.2741 349.433 68.1527 349.167 67.9101 348.962C67.6767 348.747 67.3874 348.64 67.0421 348.64H65.3061V350.866ZM76.645 352.182C75.609 352.182 74.755 351.841 74.083 351.16C73.411 350.469 73.075 349.592 73.075 348.528C73.075 347.324 73.2476 346.405 73.593 345.77C73.9476 345.126 74.6663 344.543 75.749 344.02C75.805 343.992 75.8703 343.959 75.945 343.922C76.029 343.885 76.127 343.843 76.239 343.796C76.3603 343.74 76.463 343.693 76.547 343.656L77.303 343.32C78.0496 342.947 78.4463 342.499 78.493 341.976L79.473 342.536C79.4076 342.863 79.3003 343.124 79.151 343.32C79.1416 343.339 79.1136 343.381 79.067 343.446C79.0203 343.502 78.9876 343.544 78.969 343.572C78.9503 343.591 78.9176 343.623 78.871 343.67C78.8336 343.707 78.7916 343.745 78.745 343.782C78.7076 343.819 78.6563 343.857 78.591 343.894C78.2456 344.109 77.9983 344.249 77.849 344.314C77.793 344.342 77.7323 344.37 77.667 344.398C77.611 344.426 77.5643 344.449 77.527 344.468C77.4896 344.487 77.4616 344.501 77.443 344.51L76.981 344.706L76.533 344.888C75.9076 345.159 75.4456 345.434 75.147 345.714C74.8483 345.994 74.6336 346.349 74.503 346.778C74.7923 346.423 75.1563 346.153 75.595 345.966C76.043 345.779 76.5003 345.686 76.967 345.686C77.8536 345.686 78.5956 345.985 79.193 346.582C79.809 347.189 80.117 347.959 80.117 348.892C80.117 349.844 79.7903 350.633 79.137 351.258C78.4743 351.874 77.6436 352.182 76.645 352.182ZM78.899 348.892C78.899 348.267 78.6936 347.758 78.283 347.366C77.8816 346.965 77.3496 346.764 76.687 346.764C76.099 346.764 75.5576 346.955 75.063 347.338C74.587 347.721 74.349 348.215 74.349 348.822C74.349 349.457 74.5683 349.979 75.007 350.39C75.4456 350.801 75.9916 351.006 76.645 351.006C77.3076 351.006 77.8443 350.805 78.255 350.404C78.6843 350.003 78.899 349.499 78.899 348.892ZM85.2743 344.818C86.2543 344.818 87.0897 345.177 87.7803 345.896C88.471 346.615 88.8163 347.483 88.8163 348.5C88.8163 349.527 88.471 350.399 87.7803 351.118C87.099 351.827 86.2637 352.182 85.2743 352.182C84.117 352.182 83.235 351.72 82.6283 350.796V354.8H81.4103V345H82.6283V346.204C83.235 345.28 84.117 344.818 85.2743 344.818ZM85.1203 351.006C85.8203 351.006 86.4083 350.768 86.8843 350.292C87.3603 349.797 87.5983 349.2 87.5983 348.5C87.5983 347.791 87.3603 347.198 86.8843 346.722C86.4083 346.237 85.8203 345.994 85.1203 345.994C84.411 345.994 83.8183 346.237 83.3423 346.722C82.8663 347.198 82.6283 347.791 82.6283 348.5C82.6283 349.2 82.8663 349.797 83.3423 350.292C83.8183 350.768 84.411 351.006 85.1203 351.006ZM96.0657 346.204V345H97.2837V352H96.0657V350.796C95.4684 351.72 94.5864 352.182 93.4197 352.182C92.4304 352.182 91.595 351.827 90.9137 351.118C90.223 350.399 89.8777 349.527 89.8777 348.5C89.8777 347.483 90.223 346.615 90.9137 345.896C91.6044 345.177 92.4397 344.818 93.4197 344.818C94.5864 344.818 95.4684 345.28 96.0657 346.204ZM93.5737 351.006C94.283 351.006 94.8757 350.768 95.3517 350.292C95.8277 349.797 96.0657 349.2 96.0657 348.5C96.0657 347.791 95.8277 347.198 95.3517 346.722C94.8757 346.237 94.283 345.994 93.5737 345.994C92.8737 345.994 92.2857 346.237 91.8097 346.722C91.3337 347.198 91.0957 347.791 91.0957 348.5C91.0957 349.2 91.3337 349.797 91.8097 350.292C92.2857 350.768 92.8737 351.006 93.5737 351.006ZM103.973 347.912V345H105.191V352H103.973V349.074H100.347V352H99.1291V345H100.347V347.912H103.973Z" fill="#F4F9FF"/>
<path d="M287 345L293.5 351L300 345" stroke="#F4F9FF" stroke-width="2" stroke-linecap="round" stroke-linejoin="round"/>
<rect x="20" y="398" width="295" height="47" rx="23.5" fill="#F4F9FF"/>
<path d="M124.05 415.2H131.162V425H129.86V416.432H125.352V425H124.05V415.2ZM139.047 424.118C138.338 424.827 137.465 425.182 136.429 425.182C135.393 425.182 134.52 424.827 133.811 424.118C133.102 423.409 132.747 422.536 132.747 421.5C132.747 420.464 133.102 419.591 133.811 418.882C134.52 418.173 135.393 417.818 136.429 417.818C137.465 417.818 138.338 418.173 139.047 418.882C139.766 419.601 140.125 420.473 140.125 421.5C140.125 422.527 139.766 423.399 139.047 424.118ZM136.429 423.992C137.129 423.992 137.717 423.754 138.193 423.278C138.669 422.802 138.907 422.209 138.907 421.5C138.907 420.791 138.669 420.198 138.193 419.722C137.717 419.246 137.129 419.008 136.429 419.008C135.738 419.008 135.155 419.246 134.679 419.722C134.203 420.198 133.965 420.791 133.965 421.5C133.965 422.209 134.203 422.802 134.679 423.278C135.155 423.754 135.738 423.992 136.429 423.992ZM141.561 418H147.623V425H146.405V419.162H142.779V425H141.561V418ZM153.341 417.818C154.321 417.818 155.156 418.177 155.847 418.896C156.537 419.615 156.883 420.483 156.883 421.5C156.883 422.527 156.537 423.399 155.847 424.118C155.165 424.827 154.33 425.182 153.341 425.182C152.183 425.182 151.301 424.72 150.695 423.796V427.8H149.477V418H150.695V419.204C151.301 418.28 152.183 417.818 153.341 417.818ZM153.187 424.006C153.887 424.006 154.475 423.768 154.951 423.292C155.427 422.797 155.665 422.2 155.665 421.5C155.665 420.791 155.427 420.198 154.951 419.722C154.475 419.237 153.887 418.994 153.187 418.994C152.477 418.994 151.885 419.237 151.409 419.722C150.933 420.198 150.695 420.791 150.695 421.5C150.695 422.2 150.933 422.797 151.409 423.292C151.885 423.768 152.477 424.006 153.187 424.006ZM164.244 424.118C163.535 424.827 162.662 425.182 161.626 425.182C160.59 425.182 159.717 424.827 159.008 424.118C158.299 423.409 157.944 422.536 157.944 421.5C157.944 420.464 158.299 419.591 159.008 418.882C159.717 418.173 160.59 417.818 161.626 417.818C162.662 417.818 163.535 418.173 164.244 418.882C164.963 419.601 165.322 420.473 165.322 421.5C165.322 422.527 164.963 423.399 164.244 424.118ZM161.626 423.992C162.326 423.992 162.914 423.754 163.39 423.278C163.866 422.802 164.104 422.209 164.104 421.5C164.104 420.791 163.866 420.198 163.39 419.722C162.914 419.246 162.326 419.008 161.626 419.008C160.935 419.008 160.352 419.246 159.876 419.722C159.4 420.198 159.162 420.791 159.162 421.5C159.162 422.209 159.4 422.802 159.876 423.278C160.352 423.754 160.935 423.992 161.626 423.992ZM169.936 425.182C168.9 425.182 168.046 424.841 167.374 424.16C166.702 423.469 166.366 422.592 166.366 421.528C166.366 420.324 166.539 419.405 166.884 418.77C167.239 418.126 167.957 417.543 169.04 417.02C169.096 416.992 169.161 416.959 169.236 416.922C169.32 416.885 169.418 416.843 169.53 416.796C169.651 416.74 169.754 416.693 169.838 416.656L170.594 416.32C171.341 415.947 171.737 415.499 171.784 414.976L172.764 415.536C172.699 415.863 172.591 416.124 172.442 416.32C172.433 416.339 172.405 416.381 172.358 416.446C172.311 416.502 172.279 416.544 172.26 416.572C172.241 416.591 172.209 416.623 172.162 416.67C172.125 416.707 172.083 416.745 172.036 416.782C171.999 416.819 171.947 416.857 171.882 416.894C171.537 417.109 171.289 417.249 171.14 417.314C171.084 417.342 171.023 417.37 170.958 417.398C170.902 417.426 170.855 417.449 170.818 417.468C170.781 417.487 170.753 417.501 170.734 417.51L170.272 417.706L169.824 417.888C169.199 418.159 168.737 418.434 168.438 418.714C168.139 418.994 167.925 419.349 167.794 419.778C168.083 419.423 168.447 419.153 168.886 418.966C169.334 418.779 169.791 418.686 170.258 418.686C171.145 418.686 171.887 418.985 172.484 419.582C173.1 420.189 173.408 420.959 173.408 421.892C173.408 422.844 173.081 423.633 172.428 424.258C171.765 424.874 170.935 425.182 169.936 425.182ZM172.19 421.892C172.19 421.267 171.985 420.758 171.574 420.366C171.173 419.965 170.641 419.764 169.978 419.764C169.39 419.764 168.849 419.955 168.354 420.338C167.878 420.721 167.64 421.215 167.64 421.822C167.64 422.457 167.859 422.979 168.298 423.39C168.737 423.801 169.283 424.006 169.936 424.006C170.599 424.006 171.135 423.805 171.546 423.404C171.975 423.003 172.19 422.499 172.19 421.892ZM180.609 424.118C179.9 424.827 179.027 425.182 177.991 425.182C176.955 425.182 176.083 424.827 175.373 424.118C174.664 423.409 174.309 422.536 174.309 421.5C174.309 420.464 174.664 419.591 175.373 418.882C176.083 418.173 176.955 417.818 177.991 417.818C179.027 417.818 179.9 418.173 180.609 418.882C181.328 419.601 181.687 420.473 181.687 421.5C181.687 422.527 181.328 423.399 180.609 424.118ZM177.991 423.992C178.691 423.992 179.279 423.754 179.755 423.278C180.231 422.802 180.469 422.209 180.469 421.5C180.469 420.791 180.231 420.198 179.755 419.722C179.279 419.246 178.691 419.008 177.991 419.008C177.301 419.008 176.717 419.246 176.241 419.722C175.765 420.198 175.527 420.791 175.527 421.5C175.527 422.209 175.765 422.802 176.241 423.278C176.717 423.754 177.301 423.992 177.991 423.992ZM187.785 421.402C188.504 421.701 188.863 422.242 188.863 423.026C188.863 423.623 188.667 424.104 188.275 424.468C187.883 424.823 187.333 425 186.623 425H183.123V418H186.343C187.034 418 187.571 418.173 187.953 418.518C188.345 418.863 188.541 419.325 188.541 419.904C188.541 420.576 188.289 421.075 187.785 421.402ZM186.287 419.092H184.313V420.926H186.287C186.997 420.926 187.351 420.613 187.351 419.988C187.351 419.391 186.997 419.092 186.287 419.092ZM184.313 423.894H186.553C186.908 423.894 187.179 423.81 187.365 423.642C187.561 423.474 187.659 423.236 187.659 422.928C187.659 422.639 187.561 422.415 187.365 422.256C187.179 422.088 186.908 422.004 186.553 422.004H184.313V423.894ZM195.974 419.204V418H197.192V425H195.974V423.796C195.377 424.72 194.495 425.182 193.328 425.182C192.339 425.182 191.503 424.827 190.822 424.118C190.131 423.399 189.786 422.527 189.786 421.5C189.786 420.483 190.131 419.615 190.822 418.896C191.513 418.177 192.348 417.818 193.328 417.818C194.495 417.818 195.377 418.28 195.974 419.204ZM193.482 424.006C194.191 424.006 194.784 423.768 195.26 423.292C195.736 422.797 195.974 422.2 195.974 421.5C195.974 420.791 195.736 420.198 195.26 419.722C194.784 419.237 194.191 418.994 193.482 418.994C192.782 418.994 192.194 419.237 191.718 419.722C191.242 420.198 191.004 420.791 191.004 421.5C191.004 422.2 191.242 422.797 191.718 423.292C192.194 423.768 192.782 424.006 193.482 424.006ZM198.253 418H204.245V419.176H201.865V425H200.647V419.176H198.253V418ZM206.531 420.52H208.267C208.967 420.52 209.545 420.73 210.003 421.15C210.469 421.561 210.703 422.097 210.703 422.76C210.703 423.423 210.469 423.964 210.003 424.384C209.536 424.795 208.957 425 208.267 425H205.313V418H206.531V420.52ZM206.531 423.866H208.267C208.621 423.866 208.915 423.763 209.149 423.558C209.382 423.353 209.499 423.087 209.499 422.76C209.499 422.433 209.377 422.167 209.135 421.962C208.901 421.747 208.612 421.64 208.267 421.64H206.531V423.866Z" fill="#121820"/>
</g>
<defs>
<filter id="filter0_b_171_1260" x="-16.3" y="-16.3" width="367.6" height="497.6" filterUnits="userSpaceOnUse" color-interpolation-filters="sRGB">
<feFlood flood-opacity="0" result="BackgroundImageFix"/>
<feGaussianBlur in="BackgroundImageFix" stdDeviation="8.15"/>
<feComposite in2="SourceAlpha" operator="in" result="effect1_backgroundBlur_171_1260"/>
<feBlend mode="normal" in="SourceGraphic" in2="effect1_backgroundBlur_171_1260" result="shape"/>
</filter>
</defs>
</svg>
