<svg width="34" height="34" viewBox="0 0 34 34" fill="none" xmlns="http://www.w3.org/2000/svg">
<circle cx="17" cy="17" r="17" fill="#121820"/>
<g clip-path="url(#clip0_238_580)">
<path fill-rule="evenodd" clip-rule="evenodd" d="M26.5417 11.9567C26.68 11.5017 26.5417 11.1667 25.8792 11.1667H23.6917C23.135 11.1667 22.8783 11.4558 22.7392 11.775C22.7392 11.775 21.6267 14.4383 20.0508 16.1683C19.5408 16.67 19.3092 16.8292 19.0308 16.8292C18.8917 16.8292 18.6825 16.67 18.6825 16.2142V11.9567C18.6825 11.41 18.5292 11.1667 18.0658 11.1667H14.6258C14.2783 11.1667 14.0692 11.42 14.0692 11.6608C14.0692 12.1783 14.8575 12.2983 14.9383 13.755V16.92C14.9383 17.6142 14.8108 17.74 14.5325 17.74C13.7908 17.74 11.9867 15.0642 10.9158 12.0025C10.7083 11.4067 10.4983 11.1667 9.93917 11.1667H7.75C7.125 11.1667 7 11.4558 7 11.775C7 12.3433 7.74167 15.1667 10.4542 18.9008C12.2625 21.4508 14.8083 22.8333 17.1275 22.8333C18.5183 22.8333 18.69 22.5267 18.69 21.9975V20.07C18.69 19.4558 18.8217 19.3333 19.2625 19.3333C19.5875 19.3333 20.1433 19.4933 21.4417 20.7225C22.925 22.18 23.1692 22.8333 24.0042 22.8333H26.1917C26.8167 22.8333 27.13 22.5267 26.95 21.92C26.7517 21.3167 26.0433 20.4408 25.1042 19.4017C24.5942 18.81 23.8292 18.1725 23.5967 17.8533C23.2725 17.4442 23.365 17.2617 23.5967 16.8975C23.5967 16.8975 26.2633 13.2092 26.5408 11.9567" fill="#F4F9FF"/>
</g>
<defs>
<clipPath id="clip0_238_580">
<rect width="20" height="20" fill="white" transform="translate(7 7)"/>
</clipPath>
</defs>
</svg>
