<svg width="68" height="68" viewBox="0 0 68 68" fill="none" xmlns="http://www.w3.org/2000/svg">
<rect width="68" height="68" rx="15" fill="#D8E1EA"/>
<path d="M51.0339 28.3781L35.7794 23.6914C34.9482 23.436 34.0513 23.436 33.2206 23.6914L17.9655 28.3781C16.6782 28.7735 16.6782 30.476 17.9655 30.8713L20.625 31.6884C20.0414 32.4097 19.6827 33.2896 19.6471 34.2532C19.1205 34.5551 18.7497 35.0998 18.7497 35.75C18.7497 36.3395 19.0604 36.8356 19.5077 37.1527L18.1115 43.4352C17.9901 43.9816 18.4057 44.5 18.9652 44.5H22.0337C22.5937 44.5 23.0093 43.9816 22.8879 43.4352L21.4918 37.1527C21.9391 36.8356 22.2497 36.3395 22.2497 35.75C22.2497 35.1173 21.8959 34.5879 21.3933 34.2806C21.4349 33.4592 21.8549 32.7329 22.5248 32.2724L33.22 35.5586C33.7155 35.7106 34.666 35.9004 35.7789 35.5586L51.0339 30.8719C52.3218 30.476 52.3218 28.7741 51.0339 28.3781ZM36.2929 37.2315C34.7327 37.7106 33.4032 37.4459 32.706 37.2315L24.7752 34.7952L23.9997 41C23.9997 42.9332 28.7007 44.5 34.4997 44.5C40.2988 44.5 44.9997 42.9332 44.9997 41L44.2243 34.7946L36.2929 37.2315Z" fill="#121820"/>
</svg>
