<svg width="68" height="68" viewBox="0 0 68 68" fill="none" xmlns="http://www.w3.org/2000/svg">
<rect width="68" height="68" rx="15" fill="#D8E1EA"/>
<g clip-path="url(#clip0_15_177)">
<path fill-rule="evenodd" clip-rule="evenodd" d="M34.5 34.5146C37.568 34.5146 39.9542 31.3326 39.9542 28.0386V27.0067C39.9542 23.7128 37.568 21.3756 34.5 21.3756C31.4318 21.3756 29.0456 23.7127 29.0456 27.0067V28.0386C29.0456 31.3326 31.4318 34.5146 34.5 34.5146ZM23.5725 35.58C24.4497 35.58 26.8503 34.4418 26.8503 32.0802V30.3302C26.8503 27.9685 25.1186 26.8303 23.5725 26.8303C22.0777 26.8303 20.2947 27.9685 20.2947 30.3302V32.0802C20.2947 34.4418 22.7419 35.58 23.5725 35.58ZM43.212 39.9557C43.2103 39.9386 43.2051 39.9223 43.2034 39.9053C43.1778 39.6993 43.1384 39.4977 43.0838 39.3004C43.0838 39.2985 43.0838 39.2969 43.0821 39.2952C42.9676 38.8757 42.7743 38.4715 42.4857 38.0733V38.0716C42.0122 37.4163 41.298 36.748 40.1376 36.0962C39.5241 35.7517 39.254 35.5938 38.8748 35.5938C38.2716 35.5938 37.7452 36.0628 36.8584 36.8771H36.8566L36.05 37.6187C36.0209 37.6462 35.1512 38.8748 34.5001 38.8748C33.8489 38.8748 32.9792 37.6461 32.9501 37.6187L32.1435 36.8771H32.1418C31.255 36.0628 30.7286 35.5938 30.1254 35.5938C29.746 35.5938 29.4075 35.7517 28.8626 36.0962C27.7375 36.8064 26.9877 37.4155 26.5162 38.0698L26.5144 38.0707C26.5127 38.0724 26.5127 38.0751 26.5111 38.0765C26.2256 38.4714 26.0342 38.873 25.9198 39.29C25.9182 39.2934 25.9163 39.2977 25.9149 39.3018C25.8618 39.4977 25.8224 39.6966 25.7969 39.9008C25.7952 39.9197 25.79 39.9376 25.7882 39.9564C25.7642 40.1734 25.7507 40.3948 25.7507 40.6245C25.7507 40.6501 25.7502 45.4146 25.7507 45.4369C25.7507 46.9919 26.3368 47.6242 27.938 47.6242H41.0624C42.6774 47.6242 43.2498 47.026 43.2498 45.4369C43.2502 45.4146 43.2496 40.6501 43.2496 40.6245C43.2495 40.3949 43.2358 40.1736 43.212 39.9557ZM45.4466 35.58C46.3238 35.58 48.7246 34.4418 48.7246 32.0802V30.3302C48.7246 27.9685 46.9929 26.8303 45.4466 26.8303C43.9517 26.8303 42.1688 27.9685 42.1688 30.3302V32.0802C42.1688 34.4418 44.616 35.58 45.4466 35.58ZM19.489 37.9486C17.4536 39.1073 17.0008 40.9546 17.0008 42.156C17.0008 42.1747 16.999 44.3263 17.0008 44.3433C17.0008 45.9309 17.534 46.5308 19.1881 46.5308H23.5629C23.5629 46.5308 23.5629 41.8826 23.5629 39.9685L22.4693 38.8748C21.3122 37.8546 20.3367 37.4667 19.489 37.9486ZM23.5629 39.9685C23.5629 39.4491 23.587 39.9893 23.5629 39.9685V39.9685ZM51.9993 42.156C51.9993 40.9545 51.5464 39.1071 49.5111 37.9486C48.6634 37.4667 47.6879 37.8546 46.5308 38.8749L45.4371 39.9686C45.4371 41.8826 45.4371 46.5309 45.4371 46.5309H49.8119C51.4661 46.5309 51.9993 45.931 51.9993 44.3434C52.001 44.3263 51.9993 42.1748 51.9993 42.156ZM45.437 39.9685C45.413 39.9893 45.437 39.4491 45.437 39.9685V39.9685Z" fill="#121820"/>
</g>
<defs>
<clipPath id="clip0_15_177">
<rect width="35" height="35" fill="white" transform="translate(17 17)"/>
</clipPath>
</defs>
</svg>
