<svg width="808" height="261" viewBox="0 0 808 261" fill="none" xmlns="http://www.w3.org/2000/svg">
<g opacity="0.7">
<path d="M29.1133 204.298L56.3013 183.078L63.2257 191.95L36.0376 213.17L29.1133 204.298ZM0.55957 177.154L31.2773 153.18L38.7973 162.815L8.07957 186.789L0.55957 177.154ZM9.72919 195.787L56.3782 159.378L64.0471 169.204L17.3981 205.613L9.72919 195.787ZM4.56395 160.06L15.153 151.795L38.3086 181.464L27.7196 189.728L4.56395 160.06ZM32.2988 142.097L45.2704 136.886C54.2911 167.915 52.7506 198.591 41.7148 225.164C38.4015 224.066 31.0653 222.731 27.2122 222.514C39.1322 197.86 40.9844 169.551 32.2988 142.097ZM50.275 209.58L60.9594 201.241L81.1368 227.093C85.0085 232.054 86.2347 235.395 84.0871 239.528C81.8441 243.734 77.5093 247.425 71.4993 252.115C68.7142 249.53 64.0817 246.545 60.5869 244.821C64.3819 242.012 68.4839 238.811 69.7241 237.843C70.9642 236.875 71.1225 236.291 70.3035 235.242L50.275 209.58ZM53.9164 184.94L56.2059 183.153L57.8579 180.942L67.8559 180.968C67.6488 190.34 66.1503 201.795 63.5327 210.439C60.8779 209.594 56.1221 209.008 53.4789 208.768C55.2402 202.174 55.9243 192.43 55.2566 186.657L53.9164 184.94ZM37.9292 233.492C49.4489 223.273 66.5528 207.621 82.4166 192.937L90.0111 202.667C74.8895 216.926 58.6232 232.077 47.0407 242.806L37.9292 233.492ZM58.2559 146.246L93.2665 118.921L101.531 129.51L66.5205 156.835L58.2559 146.246ZM45.8917 127.651L58.8493 120.454C70.4969 142.065 78.7079 164.976 78.7916 183.178C75.2456 182.569 67.2952 182.02 63.3048 182.218C63.8935 166.254 56.3456 146.355 45.8917 127.651ZM81.2744 138.566L93.8272 130.457C115.189 166.284 121.296 194.368 106.543 225.225C103.313 223.448 95.8791 220.807 91.8445 219.964C106.149 193.449 100.451 169.037 81.2744 138.566ZM70.9552 149.536C93.6828 170.789 118.139 185.012 142.935 180.396C142.051 184.77 141.925 192.083 142.665 196.571C114.556 200.089 88.8338 184.244 61.8228 159.273L70.9552 149.536Z" fill="#121820"/>
<path d="M132.198 125.531L183.616 85.3999L190.839 94.6534L150.963 125.776L182.16 165.747L170.617 174.756L132.198 125.531ZM180.087 88.1547L191.725 79.0712L221.731 117.516C225.9 122.858 226.5 126.381 223.611 130.939C220.816 135.423 215.262 139.911 207.44 146.016C204.708 143.696 200.203 141.072 196.858 139.539C201.586 136.155 207.786 131.316 209.238 130.029C210.86 128.763 211.06 127.84 210.018 126.504L180.087 88.1547ZM149.978 133.759L195.006 98.6158L201.111 106.438L156.084 141.581L149.978 133.759ZM93.9832 103.318L178.982 36.978L186.799 46.9947L101.801 113.334L93.9832 103.318ZM122.523 90.7139L138.008 84.0013C138.045 93.4898 137.489 103.595 136.704 110.654L125.015 114.558C125.045 107.32 123.935 97.4406 122.523 90.7139ZM156.619 75.0016L161.575 62.0765C173.567 61.3134 190.103 61.4554 199.701 63.3285L194.747 77.6333C185.797 75.4089 169.27 74.4921 156.619 75.0016ZM111.618 119.028C129.191 105.158 156.58 83.0149 181.774 62.5838L188.423 72.284C164.079 92.8198 137.486 114.803 120.04 129.033L111.618 119.028ZM159.658 146.16L204.589 111.092L210.695 118.914L165.763 153.983L159.658 146.16ZM124.117 66.5973L135.946 57.3648L146.295 70.6249L134.466 79.8574L124.117 66.5973Z" fill="#121820"/>
</g>
<g opacity="0.55">
<path d="M362.733 128.306L386.06 151.87L376.428 161.405L353.101 137.841L362.733 128.306ZM413.09 69.2604L445.782 102.285L376.121 171.244L365.735 160.752L425.678 101.413L413.248 88.8568L352.101 149.388L342.226 139.412L413.09 69.2604ZM378.444 50.4308L388.745 60.8369L372.147 77.268C357.527 91.7409 333.22 109.673 303.552 104.817C304.425 101.398 304.637 93.3558 304.055 89.8445C330.987 94.3449 349.376 79.2064 362.018 66.6916L378.444 50.4308ZM376.021 38.8666L405.222 68.3649L395.676 77.8149L366.475 48.3165L376.021 38.8666ZM344.033 52.8238L384.217 93.4162L374.412 103.122L334.229 62.5292L344.033 52.8238ZM355.489 88.6501C355.884 95.241 354.135 119.449 353.592 125.265L338.01 126.897C340.373 116.555 342.694 97.5702 343.426 88.1612L355.489 88.6501ZM386.007 27.1084L393.819 38.9566C380.254 47.9584 364.815 55.0682 352.738 57.3175C352.584 53.8939 351.337 46.7853 350.499 43.1871C361.289 41.7014 374.414 35.1789 386.007 27.1084Z" fill="#121820"/>
<path d="M443.425 162.343L439.039 166.685L479.478 207.535L483.864 203.194L443.425 162.343ZM454.949 150.935L450.563 155.277L491.002 196.127L495.388 191.785L454.949 150.935ZM452.983 133.64L513.088 194.357L481.956 225.175L421.85 164.459L452.983 133.64ZM497.193 139.426L507.239 149.574L460.541 195.802L450.495 185.654L497.193 139.426ZM428.431 182.975L438.477 193.123L427.469 204.021C425.061 206.404 425.484 207.348 429.315 211.218C431.018 212.938 438.084 220.076 440.383 222.398C443.362 225.408 444.989 225.16 451.866 219.033C452.276 222.544 455.07 228.462 457.278 231.725C445.594 240.908 440.205 240.624 432.117 232.453C429.818 230.131 421.049 221.273 418.836 219.037C408.024 208.115 408.393 202.812 417.251 194.043L428.431 182.975ZM437.652 187.129L450.141 187.877C452.668 195.762 454.838 206.555 454.462 213.228L440.945 212.646C441.491 206.316 440.006 195.356 437.652 187.129ZM460.246 220.103L473.234 223.933C474.118 235.147 473.278 248.92 470.156 257.29L455.972 253.111C459.091 245.425 460.873 231.572 460.246 220.103ZM417.459 169.827L423.215 182.179C413.69 187.521 402.802 191.659 391.856 190.235L390.39 175.509C399.367 177.009 409.135 174.492 417.459 169.827ZM460.438 114.681L531.951 186.922L522.921 195.861L451.407 123.62L460.438 114.681Z" fill="#121820"/>
</g>
<path d="M507.155 58.4998L519.835 54.0666L523.15 63.5479C530.578 84.7951 527.607 106.73 509.253 120.967L497.098 111.5C513.109 99.3637 515.542 82.4886 510.47 67.9811L507.155 58.4998ZM510.354 57.3815L522.576 53.1081L525.652 61.904C530.564 75.9545 541.971 86.5807 560.64 86.0786L556.912 100.715C535.022 100.804 520.618 86.7392 513.429 66.1774L510.354 57.3815ZM554.015 35.9627L569.208 30.6509L590.855 92.5648L575.662 97.8766L554.015 35.9627ZM555.945 107.847C578.334 100.019 594.832 102.84 599.345 115.748C603.898 128.771 592.712 141.143 570.323 148.971C547.933 156.799 531.475 154.092 526.922 141.07C522.409 128.161 533.555 115.675 555.945 107.847ZM560.058 119.613C546.35 124.406 540.038 129.818 542.115 135.758C544.192 141.698 552.541 142.112 566.249 137.319C580.071 132.486 586.343 126.96 584.267 121.02C582.19 115.08 573.88 114.78 560.058 119.613ZM541.42 61.9035L562.895 54.3949L567.209 66.732L545.733 74.2405L541.42 61.9035Z" fill="#121820"/>
<path d="M656.06 74.1259C678.906 66.1381 696.164 68.5652 700.557 81.1308C704.871 93.4679 692.885 106.119 670.038 114.107C647.192 122.095 629.934 119.668 625.621 107.331C621.228 94.7652 633.213 82.1137 656.06 74.1259ZM660.054 85.5491C645.775 90.5415 638.703 96.3472 640.7 102.059C642.657 107.656 651.765 107.676 666.045 102.684C680.324 97.6916 687.436 92.0001 685.479 86.4027C683.482 80.6911 674.333 80.5567 660.054 85.5491ZM598.367 25.7122L665.307 2.30797L669.5 14.3024L602.56 37.7066L598.367 25.7122ZM602.486 71.9609L697.756 38.6518L701.989 50.7604L606.72 84.0695L602.486 71.9609ZM631.354 41.2283L646.432 35.9564L653.941 57.4321L638.862 62.704L631.354 41.2283ZM656.511 5.38327L671.589 0.111328L674.625 8.79298C677.54 17.1319 680.696 26.1563 681.674 38.1211L666.036 41.7938C665.098 29.9432 662.422 22.2897 659.546 14.0649L656.511 5.38327Z" fill="#121820"/>
<path opacity="0.4" d="M281.563 28.6914C281.053 35.3835 278.128 55.2137 276.352 63.131L260.484 60.1184C262.305 52.3664 265.27 33.6772 265.982 25.4249L281.563 28.6914ZM324.512 64.6663C321.846 66.6208 319.027 69.325 317.067 71.2676C307.538 80.9966 291.944 94.211 276.815 100.568C257.401 108.782 235.989 110.533 217.84 107.6L212.939 88.981C229.552 93.1227 251.346 93.1297 269.946 85.8426C283.554 80.4245 300.399 66.2551 311.438 51.2493L324.512 64.6663ZM248.573 18.3077C247.949 26.8906 245.431 46.2572 243.788 54.6705L227.529 51.8513C229.201 43.8734 232.268 22.588 232.54 15.3394L248.573 18.3077Z" fill="#121820"/>
<path opacity="0.4" d="M660.459 119.276H710.764V135.99H660.459V119.276ZM655.637 156.563H715.425V173.599H655.637V156.563ZM749.337 129.562H766.374V182.76H749.337V129.562ZM653.548 213.779C666.727 212.011 686.496 208.636 705.621 205.261L706.907 220.851C690.031 224.387 672.191 228.244 658.209 231.137L653.548 213.779ZM728.444 186.778H745.801C743.551 220.851 737.605 244.316 701.443 257.174C699.675 252.834 695.014 246.084 691.317 242.709C722.979 232.744 726.836 214.422 728.444 186.778ZM752.552 185.814H769.266V233.066C769.266 237.726 769.749 238.369 774.57 238.369C776.66 238.369 785.66 238.369 788.071 238.369C791.928 238.369 792.571 236.762 793.214 227.923C796.589 230.494 803.339 233.226 808 234.191C806.071 249.62 801.411 253.959 789.999 253.959C786.624 253.959 775.374 253.959 772.159 253.959C756.248 253.959 752.552 249.138 752.552 233.066V185.814ZM689.549 187.26L704.175 182.599C711.086 195.939 717.193 213.136 719.765 224.708L704.014 229.851C702.085 218.279 695.978 200.6 689.549 187.26ZM749.176 105.454L770.231 108.025C766.534 116.543 762.356 124.901 759.141 130.526L743.069 127.472C745.48 120.883 748.051 111.882 749.176 105.454ZM670.584 168.456L689.228 171.831C685.37 189.028 680.87 208.475 676.852 220.851L661.423 217.315C664.959 204.457 668.977 183.564 670.584 168.456ZM767.981 216.833C776.017 216.029 785.821 214.904 796.91 213.618L797.393 224.065C788.231 225.994 779.874 227.601 771.677 229.208L767.981 216.833ZM787.749 206.065L797.714 202.689C801.411 209.6 804.625 218.922 805.589 225.03L794.982 228.726C794.178 222.619 791.124 212.976 787.749 206.065ZM776.66 191.76L790.642 194.493C787.428 203.975 783.892 215.386 780.999 222.458L771.034 219.565C773.284 212.011 775.695 199.957 776.66 191.76ZM734.39 161.384V173.76H781.803V161.384H734.39ZM734.39 135.669V147.723H781.803V135.669H734.39ZM717.193 121.043H799.643V188.385H717.193V121.043Z" fill="#121820"/>
<path d="M278.289 110.464C313.199 110.464 333.714 119.729 333.714 136.605C333.714 153.48 313.199 162.745 278.289 162.745C243.214 162.745 222.864 153.48 222.864 136.605C222.864 119.729 243.214 110.464 278.289 110.464ZM278.289 126.512C256.119 126.512 245.696 129.821 245.696 136.605C245.696 143.719 256.119 146.697 278.289 146.697C300.459 146.697 310.882 143.719 310.882 136.605C310.882 129.821 300.459 126.512 278.289 126.512ZM208.967 169.859H347.446V187.231H208.967V169.859ZM224.85 195.835H330.736V235.211H246.689V248.778H225.015V219.99H309.062V212.214H224.85V195.835ZM225.015 243.98H334.707V260.525H225.015V243.98Z" fill="#121820"/>
<path opacity="0.7" d="M568.133 183.631C571.038 181.695 574.063 179.396 575.636 178.186C570.433 174.555 560.631 169.594 551.555 166.326L560.51 155.072C570.433 158.824 583.381 164.39 591.731 169.594L595.24 179.033C592.094 181.695 582.776 189.198 577.814 192.586L568.133 183.631ZM547.561 239.539C554.096 241.355 560.389 242.323 566.197 242.323C572.369 242.323 576.604 240.144 576.604 234.457C576.604 227.196 568.254 216.184 562.809 210.859C559.784 207.834 555.79 204.204 551.676 201.299L563.414 191.376C567.044 194.886 570.191 197.911 573.337 201.178C586.285 214.248 593.425 225.018 593.425 236.272C593.425 252.367 581.929 257.207 569.344 257.207C562.688 257.207 555.669 256.481 549.739 255.392L547.561 239.539ZM614.602 248.736C611.577 236.635 603.59 219.088 595.482 208.802L608.552 201.904C616.176 211.101 625.494 229.616 629.245 240.87L614.602 248.736ZM554.822 225.865C548.045 233.005 537.033 242.807 524.085 250.794L514.888 237.724C525.295 232.037 538.485 221.871 545.746 214.006L554.822 225.865Z" fill="#121820"/>
</svg>
